<svg width="109" height="24" viewBox="0 0 109 24" fill="none" xmlns="http://www.w3.org/2000/svg">
<path d="M15.2921 5.68917C15.2921 4.7274 15.0596 3.89387 14.5948 3.18858C14.1299 2.48328 13.5449 1.93828 12.8396 1.55358C12.1182 1.15284 11.3488 0.904386 10.5313 0.80821C9.71382 0.696004 8.7761 0.639901 7.71816 0.639901C7.42963 0.639901 7.06897 0.639901 6.63618 0.639901C6.21941 0.639901 5.77059 0.647916 5.28971 0.663946C4.82485 0.663946 4.35199 0.663946 3.8711 0.663946C3.39022 0.663946 2.9414 0.67196 2.52463 0.68799C2.1239 0.68799 1.77125 0.68799 1.46669 0.68799C1.17816 0.68799 0.985809 0.68799 0.889632 0.68799V0.928431C1.32243 0.992548 1.72316 1.0727 2.09184 1.16887C2.47654 1.24902 2.78912 1.41733 3.02956 1.6738C3.12574 1.76997 3.19787 1.93027 3.24596 2.15468C3.31007 2.36306 3.35015 2.6035 3.36618 2.876C3.39824 3.13248 3.41426 3.41299 3.41426 3.71755C3.43029 4.00608 3.43831 4.29461 3.43831 4.58314V9.27174C3.43831 9.70453 3.43831 10.1694 3.43831 10.6663C3.43831 11.1472 3.43029 11.62 3.41426 12.0849C3.41426 12.5337 3.40625 12.9505 3.39022 13.3352C3.39022 13.7199 3.39022 14.0245 3.39022 14.2489C3.39022 14.5053 3.38221 14.7698 3.36618 15.0423C3.35015 15.3148 3.3261 15.5713 3.29404 15.8117C3.27802 16.0522 3.24596 16.2686 3.19787 16.4609C3.14978 16.6533 3.08566 16.7975 3.00551 16.8937C2.79713 17.1502 2.5086 17.3425 2.13993 17.4708C1.77125 17.599 1.38654 17.6952 0.985809 17.7593V17.9998H8.67993V17.7593C8.02272 17.7273 7.50978 17.607 7.1411 17.3987C6.77243 17.1903 6.52397 16.9819 6.39574 16.7735C6.23544 16.5331 6.14728 16.2285 6.13125 15.8598C6.11522 15.4912 6.09919 15.0503 6.08316 14.5374C6.08316 14.2649 6.07515 14.0164 6.05912 13.792C6.05912 13.5516 6.05912 13.2951 6.05912 13.0226C6.05912 12.7501 6.05912 12.4375 6.05912 12.0849C6.05912 11.7162 6.05912 11.2754 6.05912 10.7625C6.44382 10.7625 6.87662 10.7625 7.3575 10.7625C7.85441 10.7625 8.35934 10.7464 8.87228 10.7144C9.40125 10.6663 9.92221 10.6022 10.4351 10.522C10.9481 10.4419 11.429 10.3217 11.8778 10.1614C12.3106 10.0011 12.7354 9.7927 13.1521 9.53623C13.5689 9.26373 13.9296 8.94314 14.2341 8.57446C14.5547 8.20578 14.8112 7.781 15.0035 7.30012C15.1959 6.81924 15.2921 6.28225 15.2921 5.68917ZM12.6953 5.56895C12.6953 6.5788 12.4228 7.49248 11.8778 8.30998C11.3328 9.11145 10.5474 9.6885 9.52147 10.0412C9.02456 10.2175 8.48757 10.3297 7.91052 10.3778C7.33346 10.4098 6.71632 10.4259 6.05912 10.4259C6.05912 10.2976 6.05912 9.94498 6.05912 9.36792C6.05912 8.79086 6.05912 8.11762 6.05912 7.34821C6.05912 6.5788 6.05912 5.79336 6.05912 4.99189C6.07515 4.19042 6.09118 3.50917 6.10721 2.94814C6.12324 2.57946 6.13927 2.29895 6.15529 2.10659C6.17132 1.89821 6.18735 1.73792 6.20338 1.62571C6.21941 1.5135 6.23544 1.42534 6.25147 1.36122C6.28353 1.28108 6.30757 1.19292 6.3236 1.09674C6.43581 1.08071 6.58007 1.06468 6.7564 1.04865C6.94875 1.01659 7.21324 1.00056 7.54985 1.00056C8.01471 1.00056 8.46353 1.03262 8.89632 1.09674C9.32912 1.16086 9.73787 1.28108 10.1226 1.4574C10.892 1.82608 11.5091 2.37108 11.974 3.0924C12.4549 3.81372 12.6953 4.63924 12.6953 5.56895ZM24.6512 14.4893C24.6512 13.6718 24.3948 12.9825 23.8818 12.4215C23.3849 11.8605 22.7758 11.4918 22.0545 11.3155C21.7499 11.2353 21.3892 11.1552 20.9725 11.075C20.5557 10.9789 20.171 10.8907 19.8184 10.8106C19.3054 10.6823 18.8806 10.49 18.544 10.2335C18.2074 9.97703 18.0391 9.55226 18.0391 8.95917C18.0391 8.59049 18.1032 8.2699 18.2315 7.9974C18.3597 7.70887 18.52 7.47645 18.7123 7.30012C18.9207 7.10777 19.1531 6.9635 19.4096 6.86733C19.6821 6.77115 19.9546 6.72306 20.2271 6.72306C20.6759 6.72306 21.0687 6.80321 21.4053 6.9635C21.7579 7.1238 22.0705 7.35623 22.343 7.66078C22.6155 7.94931 22.864 8.30196 23.0884 8.71873C23.3128 9.11946 23.5372 9.56027 23.7616 10.0412L23.954 9.99306L23.6654 7.01159C23.2006 6.83527 22.7117 6.691 22.1987 6.5788C21.6858 6.45056 21.0927 6.38645 20.4195 6.38645C19.8905 6.38645 19.3936 6.46659 18.9287 6.62689C18.4639 6.77115 18.0551 6.98755 17.7025 7.27608C17.3498 7.56461 17.0693 7.90924 16.8609 8.30998C16.6526 8.71071 16.5484 9.15953 16.5484 9.65645C16.5484 10.3778 16.7327 10.9949 17.1014 11.5078C17.4861 12.0208 17.983 12.3814 18.5921 12.5898C18.9127 12.702 19.2734 12.8062 19.6741 12.9024C20.0748 12.9986 20.4916 13.0867 20.9244 13.1669C21.4694 13.2791 21.8942 13.5035 22.1987 13.8401C22.5193 14.1607 22.6796 14.5695 22.6796 15.0664C22.6796 15.98 22.4472 16.6613 21.9823 17.1101C21.5335 17.5429 20.9244 17.7593 20.155 17.7593C19.626 17.7593 19.1692 17.6471 18.7845 17.4227C18.3998 17.1823 18.0712 16.8857 17.7987 16.5331C17.5262 16.1644 17.2937 15.7717 17.1014 15.3549C16.909 14.9221 16.7487 14.5134 16.6205 14.1287H16.4281V17.3025C16.9571 17.5429 17.5342 17.7273 18.1593 17.8555C18.7845 17.9837 19.4497 18.0478 20.155 18.0478C20.7481 18.0478 21.3091 17.9837 21.8381 17.8555C22.3831 17.7273 22.864 17.5189 23.2807 17.2303C23.6975 16.9418 24.0261 16.5731 24.2665 16.1243C24.523 15.6595 24.6512 15.1145 24.6512 14.4893ZM35.6114 6.89137V6.62689H31.9086V6.89137C32.0529 6.9074 32.2052 6.92343 32.3655 6.93946C32.5257 6.95549 32.67 6.98755 32.7982 7.03564C32.9425 7.08373 33.0547 7.15586 33.1349 7.25203C33.215 7.33218 33.2551 7.44439 33.2551 7.58865C33.2551 7.68483 33.199 7.93328 33.0868 8.33402C32.9906 8.71873 32.8624 9.19159 32.7021 9.75262C32.5418 10.2976 32.3655 10.8827 32.1731 11.5078C31.9807 12.133 31.7964 12.7341 31.6201 13.3112C31.4438 13.8722 31.2915 14.3611 31.1632 14.7778C31.035 15.1946 30.9468 15.4671 30.8988 15.5953C30.7545 15.2106 30.5862 14.7618 30.3938 14.2489C30.2015 13.7199 30.0011 13.1749 29.7927 12.6139C29.6004 12.0528 29.4 11.4998 29.1916 10.9548C28.9993 10.3938 28.823 9.88086 28.6627 9.416C28.5024 8.95115 28.3741 8.56645 28.278 8.26189C28.1818 7.9413 28.1337 7.74093 28.1337 7.66078C28.1337 7.35623 28.2539 7.16387 28.4943 7.08373C28.7508 7.00358 29.0474 6.93946 29.384 6.89137V6.62689H24.1424V6.89137C24.6874 6.92343 25.056 6.98755 25.2484 7.08373C25.4568 7.1799 25.6331 7.30814 25.7774 7.46843C26.0178 8.12564 26.2823 8.84696 26.5708 9.6324C26.8593 10.4178 27.1479 11.2193 27.4364 12.0368C27.741 12.8383 28.0375 13.6237 28.326 14.3931C28.6146 15.1625 28.871 15.8598 29.0955 16.485C29.3199 17.0941 29.5042 17.599 29.6485 17.9998C29.7927 18.3845 29.8809 18.6089 29.913 18.673C29.8969 18.7531 29.8568 18.9134 29.7927 19.1539C29.7286 19.3943 29.6405 19.6828 29.5282 20.0195C29.4321 20.3721 29.3118 20.7568 29.1676 21.1736C29.0393 21.6064 28.8871 22.0392 28.7107 22.472H28.6627C28.4382 22.2636 28.2138 22.0632 27.9894 21.8709C27.781 21.6785 27.5166 21.5823 27.196 21.5823C26.8754 21.5823 26.6189 21.6865 26.4266 21.8949C26.2342 22.1033 26.138 22.3678 26.138 22.6884C26.138 23.0089 26.2743 23.2654 26.5468 23.4578C26.8193 23.6662 27.1158 23.7703 27.4364 23.7703C27.8051 23.7703 28.1657 23.6341 28.5184 23.3616C28.871 23.0891 29.1435 22.6483 29.3359 22.0392C29.6084 21.1896 29.8889 20.292 30.1774 19.3462C30.482 18.4005 30.7785 17.4467 31.0671 16.485C31.3716 15.5232 31.6682 14.5855 31.9567 13.6718C32.2452 12.7581 32.5097 11.9246 32.7502 11.1712C32.9906 10.4018 33.199 9.73659 33.3753 9.17556C33.5516 8.61453 33.6799 8.20578 33.76 7.94931C33.8402 7.69284 33.9443 7.50049 34.0726 7.37225C34.2008 7.22799 34.3451 7.1238 34.5054 7.05968C34.6817 6.99556 34.858 6.95549 35.0343 6.93946C35.2267 6.92343 35.4191 6.9074 35.6114 6.89137ZM45.566 14.5614L45.3737 14.4653C44.989 15.1064 44.5081 15.5953 43.931 15.932C43.354 16.2525 42.5685 16.4128 41.5747 16.4128C40.9496 16.4128 40.3805 16.3006 39.8676 16.0762C39.3707 15.8358 38.9459 15.5072 38.5933 15.0904C38.2406 14.6576 37.9681 14.1447 37.7758 13.5516C37.5834 12.9425 37.4872 12.2773 37.4872 11.5559C37.4872 10.8987 37.5754 10.2816 37.7517 9.70453C37.928 9.12748 38.1685 8.62255 38.473 8.18975C38.7776 7.75696 39.1383 7.41233 39.555 7.15586C39.9718 6.89939 40.4286 6.77115 40.9255 6.77115C41.5988 6.77115 42.0877 6.97152 42.3922 7.37225C42.7128 7.75696 42.8731 8.24586 42.8731 8.83895C42.8731 9.15953 42.833 9.43203 42.7529 9.65645C42.817 9.89689 42.9533 10.0973 43.1616 10.2575C43.386 10.4178 43.6345 10.498 43.907 10.498C44.2436 10.498 44.5321 10.3778 44.7726 10.1373C45.0291 9.88086 45.1573 9.58431 45.1573 9.2477C45.1573 8.78284 45.0291 8.37409 44.7726 8.02145C44.5321 7.6688 44.2116 7.37226 43.8108 7.13181C43.4101 6.89137 42.9533 6.70703 42.4403 6.5788C41.9274 6.45056 41.4064 6.38645 40.8774 6.38645C40.092 6.38645 39.3627 6.54674 38.6894 6.86733C38.0322 7.18792 37.4632 7.6127 36.9823 8.14167C36.5014 8.67064 36.1247 9.28777 35.8522 9.99306C35.5797 10.6823 35.4435 11.4117 35.4435 12.1811C35.4435 12.9986 35.5717 13.768 35.8282 14.4893C36.1007 15.2106 36.4694 15.8438 36.9342 16.3888C37.3991 16.9178 37.9601 17.3345 38.6173 17.6391C39.2745 17.9276 39.9878 18.0719 40.7572 18.0719C41.3663 18.0719 41.9274 17.9837 42.4403 17.8074C42.9693 17.6311 43.4421 17.3826 43.8589 17.062C44.2757 16.7254 44.6283 16.3487 44.9169 15.932C45.2054 15.4992 45.4218 15.0423 45.566 14.5614ZM57.6997 17.9998V17.7834C57.5554 17.7673 57.4031 17.7513 57.2429 17.7353C57.0826 17.7032 56.9303 17.6712 56.786 17.6391C56.6417 17.591 56.5215 17.5269 56.4254 17.4467C56.3292 17.3666 56.2811 17.2704 56.2811 17.1582V10.0652C56.2811 9.53623 56.233 9.04733 56.1368 8.5985C56.0567 8.14968 55.9044 7.76498 55.68 7.44439C55.4716 7.10777 55.1831 6.8513 54.8144 6.67498C54.4617 6.48262 54.0209 6.38645 53.492 6.38645C52.947 6.38645 52.442 6.48262 51.9772 6.67498C51.5284 6.8513 51.1276 7.0677 50.775 7.32417C50.4223 7.58064 50.1258 7.85314 49.8853 8.14167C49.6609 8.4302 49.4926 8.68667 49.3804 8.91108L49.3323 8.88703L49.4045 0.543725H49.2121L45.9902 2.01042V2.15468C46.1986 2.28292 46.407 2.40314 46.6153 2.51534C46.8398 2.61152 47.0161 2.71571 47.1443 2.82792C47.2565 2.90806 47.3206 2.9802 47.3367 3.04431C47.3687 3.10843 47.3848 3.20461 47.3848 3.33284V16.9899C47.3848 17.2945 47.2325 17.4948 46.9279 17.591C46.6394 17.6712 46.3108 17.7273 45.9421 17.7593V17.9998H50.7269V17.7593C50.5666 17.7273 50.4063 17.7032 50.246 17.6872C50.0857 17.6712 49.9415 17.6471 49.8132 17.615C49.685 17.567 49.5808 17.5028 49.5006 17.4227C49.4205 17.3425 49.3804 17.2303 49.3804 17.0861V9.70453C49.3804 9.5763 49.4045 9.44005 49.4526 9.29578C49.5167 9.13549 49.5648 9.0313 49.5968 8.98321C49.8373 8.63056 50.1578 8.35005 50.5586 8.14167C50.9593 7.93328 51.4482 7.82909 52.0253 7.82909C52.4741 7.82909 52.8428 7.90924 53.1313 8.06953C53.4198 8.22983 53.6442 8.45424 53.8045 8.74277C53.9809 9.0313 54.1011 9.37593 54.1652 9.77667C54.2293 10.1774 54.2614 10.6102 54.2614 11.075V17.0861C54.2614 17.3425 54.1171 17.5109 53.8286 17.591C53.5401 17.6551 53.1794 17.7032 52.7466 17.7353V17.9998H57.6997ZM78.3876 17.9998V17.7593C77.9708 17.7112 77.5861 17.6231 77.2335 17.4948C76.8808 17.3666 76.6003 17.1422 76.3919 16.8216C76.2957 16.6773 76.2316 16.4128 76.1996 16.0281C76.1835 15.6274 76.1755 15.1946 76.1755 14.7298C76.1755 14.1527 76.1675 13.6237 76.1515 13.1428C76.1515 12.662 76.1515 12.1971 76.1515 11.7483C76.1515 11.2834 76.1515 10.8186 76.1515 10.3537C76.1515 9.87284 76.1515 9.33586 76.1515 8.74277V4.63122C76.1515 4.39078 76.1515 4.14233 76.1515 3.88586C76.1515 3.62939 76.1595 3.38093 76.1755 3.14049C76.1916 2.88402 76.2156 2.65961 76.2477 2.46725C76.2797 2.25887 76.3278 2.09858 76.3919 1.98637C76.5682 1.66578 76.8407 1.42534 77.2094 1.26505C77.5781 1.08872 77.9548 0.976519 78.3395 0.928431V0.68799H71.1022V0.928431C71.4709 0.94446 71.8396 1.00858 72.2082 1.12078C72.5769 1.21696 72.9055 1.48145 73.1941 1.91424C73.3223 2.12262 73.3944 2.39512 73.4104 2.73174C73.4425 3.05233 73.4666 3.3649 73.4826 3.66946C73.4986 4.19843 73.5066 4.6713 73.5066 5.08806C73.5066 5.50483 73.5066 5.91358 73.5066 6.31431C73.5066 6.71505 73.5066 7.13181 73.5066 7.56461C73.5066 7.98137 73.5066 8.44623 73.5066 8.95917H64.0092C64.0092 8.79887 64.0092 8.50233 64.0092 8.06953C64.0092 7.62071 64.0092 7.10777 64.0092 6.53071C64.0092 5.93762 64.0092 5.32049 64.0092 4.67931C64.0252 4.02211 64.0413 3.41299 64.0573 2.85196C64.0733 2.48328 64.1535 2.17872 64.2977 1.93828C64.442 1.69784 64.6183 1.5135 64.8267 1.38527C65.0351 1.241 65.2675 1.13681 65.524 1.07269C65.7804 1.00858 66.0209 0.96049 66.2453 0.928431V0.68799H59.0802V0.928431C59.4969 0.976519 59.8656 1.06468 60.1862 1.19292C60.5228 1.30512 60.8033 1.49748 61.0277 1.76998C61.1239 1.88218 61.196 2.04247 61.2441 2.25086C61.2922 2.44321 61.3243 2.66762 61.3403 2.92409C61.3724 3.16453 61.3884 3.42902 61.3884 3.71755C61.3884 4.00608 61.3884 4.29461 61.3884 4.58314V9.27174C61.3884 9.70453 61.3884 10.1694 61.3884 10.6663C61.3884 11.1472 61.3804 11.62 61.3643 12.0849C61.3643 12.5337 61.3563 12.9505 61.3403 13.3352C61.3403 13.7199 61.3403 14.0245 61.3403 14.2489C61.3403 14.5053 61.3323 14.7778 61.3163 15.0664C61.3002 15.3389 61.2762 15.5953 61.2441 15.8358C61.2281 16.0762 61.196 16.2926 61.1479 16.485C61.1159 16.6613 61.0678 16.7895 61.0037 16.8697C60.8113 17.0941 60.5308 17.2864 60.1621 17.4467C59.7935 17.591 59.4088 17.6952 59.008 17.7593V17.9998H66.101V17.7593C65.7644 17.7273 65.4198 17.6391 65.0671 17.4948C64.7145 17.3506 64.442 17.1422 64.2496 16.8697C64.1214 16.6934 64.0493 16.3888 64.0332 15.956C64.0172 15.5232 64.0092 15.0744 64.0092 14.6095V9.44005H73.5066C73.5066 9.60034 73.5066 9.88086 73.5066 10.2816C73.5066 10.6663 73.5066 11.1151 73.5066 11.6281C73.5066 12.125 73.5066 12.662 73.5066 13.239C73.5066 13.8 73.4986 14.345 73.4826 14.874C73.4826 15.0664 73.4746 15.2667 73.4585 15.4751C73.4585 15.6835 73.4505 15.8839 73.4345 16.0762C73.4185 16.2686 73.3944 16.4369 73.3624 16.5812C73.3463 16.7254 73.3223 16.8216 73.2902 16.8697C73.162 17.0781 72.8975 17.2704 72.4968 17.4467C72.096 17.607 71.5991 17.7112 71.006 17.7593V17.9998H78.3876ZM90.0103 14.345L89.8179 14.297C89.6256 14.89 89.2248 15.395 88.6157 15.8117C88.0226 16.2125 87.3254 16.4128 86.5239 16.4128C85.7865 16.4128 85.1373 16.2766 84.5763 16.0041C84.0153 15.7316 83.5504 15.3629 83.1818 14.8981C82.8131 14.4172 82.5326 13.8722 82.3402 13.2631C82.1479 12.6379 82.0517 11.9887 82.0517 11.3155C82.0517 11.1392 82.0597 10.9709 82.0757 10.8106C82.0918 10.6342 82.0998 10.482 82.0998 10.3537H89.8179C89.7698 9.68049 89.6176 9.09542 89.3611 8.5985C89.1046 8.10159 88.768 7.69284 88.3512 7.37225C87.9505 7.03564 87.4696 6.78718 86.9086 6.62689C86.3636 6.46659 85.7785 6.38645 85.1534 6.38645C84.384 6.38645 83.6787 6.55476 83.0375 6.89137C82.4123 7.21196 81.8754 7.63674 81.4265 8.16571C80.9937 8.69468 80.6571 9.29578 80.4167 9.96902C80.1762 10.6262 80.056 11.2914 80.056 11.9647C80.056 12.7982 80.1843 13.5917 80.4407 14.345C80.6972 15.0824 81.0579 15.7316 81.5227 16.2926C82.0036 16.8376 82.5807 17.2624 83.2539 17.567C83.9271 17.8715 84.6725 18.0238 85.49 18.0238C86.1472 18.0238 86.7403 17.9036 87.2693 17.6631C87.8143 17.4227 88.2791 17.1181 88.6638 16.7495C89.0485 16.3808 89.3531 15.98 89.5775 15.5473C89.8019 15.0984 89.9462 14.6977 90.0103 14.345ZM87.4376 8.95917C87.4376 9.18358 87.4055 9.35189 87.3414 9.46409C87.2933 9.5763 87.2132 9.69652 87.1009 9.82476C86.9407 9.88887 86.7563 9.92895 86.5479 9.94498C86.3396 9.96101 86.1151 9.96902 85.8747 9.96902C85.506 9.96902 85.1694 9.97703 84.8648 9.99306C84.5603 9.99306 84.2637 10.0011 83.9752 10.0171C83.7027 10.0171 83.4222 10.0171 83.1337 10.0171C82.8451 10.0171 82.5165 10.0171 82.1479 10.0171C82.1799 9.82476 82.2681 9.55226 82.4123 9.19961C82.5566 8.83093 82.757 8.47027 83.0134 8.11762C83.2859 7.76498 83.5985 7.46042 83.9512 7.20395C84.3198 6.93145 84.7286 6.7952 85.1774 6.7952C85.8667 6.7952 86.4117 7.01159 86.8124 7.44439C87.2292 7.86115 87.4376 8.36608 87.4376 8.95917ZM95.8186 17.9998V17.7353C95.5141 17.7032 95.2496 17.6872 95.0252 17.6872C94.8008 17.6712 94.6164 17.6471 94.4722 17.615C94.3279 17.583 94.2157 17.5269 94.1355 17.4467C94.0714 17.3666 94.0394 17.2464 94.0394 17.0861V0.615857H93.8711L90.4327 1.74593V1.8902C90.6251 1.97034 90.8655 2.09858 91.1541 2.2749C91.4426 2.4352 91.659 2.55542 91.8033 2.63556C91.9155 2.71571 91.9796 2.78784 91.9956 2.85196C92.0277 2.91608 92.0437 3.01225 92.0437 3.14049V16.9659C92.0437 17.2223 91.9235 17.4067 91.683 17.5189C91.4426 17.615 90.9537 17.6872 90.2164 17.7353V17.9998H95.8186ZM108.324 11.6281C108.324 10.9869 108.236 10.3537 108.059 9.72858C107.883 9.10343 107.611 8.5424 107.242 8.04549C106.889 7.54858 106.432 7.14784 105.871 6.84328C105.326 6.53873 104.677 6.38645 103.924 6.38645C103.459 6.38645 103.026 6.47461 102.625 6.65093C102.241 6.82725 101.88 7.05167 101.543 7.32417C101.207 7.58064 100.902 7.86917 100.63 8.18975C100.357 8.51034 100.109 8.82292 99.8843 9.12748L99.8603 9.07939V6.38645H99.716L96.1815 7.78101V7.92527C96.3739 8.00542 96.6304 8.12564 96.951 8.28593C97.2715 8.4302 97.504 8.5424 97.6482 8.62255C97.7604 8.7027 97.8246 8.77483 97.8406 8.83895C97.8726 8.90306 97.8887 8.99924 97.8887 9.12748V22.4479C97.8887 22.5762 97.8165 22.6884 97.6723 22.7845C97.544 22.8807 97.3757 22.9609 97.1674 23.025C96.975 23.0891 96.7666 23.1372 96.5422 23.1692C96.3178 23.2173 96.1254 23.2494 95.9651 23.2654V23.5299H101.88V23.2654C101.72 23.2494 101.527 23.2334 101.303 23.2173C101.095 23.2013 100.886 23.1692 100.678 23.1212C100.485 23.0891 100.317 23.033 100.173 22.9528C100.029 22.8887 99.9404 22.7845 99.9084 22.6403C99.9084 22.3517 99.9084 21.9751 99.9084 21.5102C99.9084 21.0453 99.9004 20.5725 99.8843 20.0916C99.8843 19.6107 99.8763 19.1539 99.8603 18.7211C99.8603 18.2883 99.8603 17.9597 99.8603 17.7353C100.165 17.7994 100.453 17.8395 100.726 17.8555C101.014 17.8715 101.303 17.8795 101.591 17.8795C102.633 17.8795 103.571 17.7273 104.405 17.4227C105.238 17.1021 105.943 16.6693 106.521 16.1243C107.098 15.5633 107.538 14.8981 107.843 14.1287C108.164 13.3592 108.324 12.5257 108.324 11.6281ZM106.16 12.3253C106.16 13.0627 106.056 13.7439 105.847 14.3691C105.655 14.9942 105.39 15.5312 105.054 15.98C104.717 16.4289 104.333 16.7815 103.9 17.038C103.467 17.2945 103.018 17.4227 102.553 17.4227C102.024 17.4227 101.591 17.3345 101.255 17.1582C100.918 16.9659 100.654 16.7254 100.461 16.4369C100.269 16.1323 100.133 15.8037 100.053 15.4511C99.9725 15.0824 99.9164 14.7298 99.8843 14.3931C99.8683 14.0245 99.8603 13.6558 99.8603 13.2871C99.8603 12.9184 99.8603 12.4055 99.8603 11.7483C99.8603 11.4758 99.8603 11.1632 99.8603 10.8106C99.8763 10.4419 99.8843 10.0973 99.8843 9.77667C99.8843 9.68049 99.9404 9.52821 100.053 9.31983C100.181 9.11145 100.357 8.91108 100.582 8.71873C100.822 8.51034 101.103 8.33402 101.423 8.18975C101.76 8.02946 102.136 7.94931 102.553 7.94931C103.162 7.94931 103.691 8.06953 104.14 8.30998C104.605 8.53439 104.982 8.84696 105.27 9.2477C105.575 9.6324 105.799 10.0892 105.943 10.6182C106.088 11.1472 106.16 11.7162 106.16 12.3253Z" fill="#4A4A43"/>
</svg>
